<svg width="72" height="53" viewBox="0 0 72 53" fill="none" xmlns="http://www.w3.org/2000/svg">
<path fill-rule="evenodd" clip-rule="evenodd" d="M6.45439 1.28589L35.75 24.2129L65.0456 1.28589C64.0162 0.916244 62.9066 0.714844 61.75 0.714844H9.75C8.59337 0.714844 7.48378 0.916243 6.45439 1.28589ZM1.33659 5.53457C0.487101 6.98109 0 8.66608 0 10.4648V42.9648C0 48.3496 4.36523 52.7148 9.75 52.7148H61.75C67.1348 52.7148 71.5 48.3496 71.5 42.9648V10.4648C71.5 8.66608 71.0129 6.98109 70.1634 5.53457L37.753 30.8992C36.5764 31.82 34.9236 31.82 33.747 30.8992L1.33659 5.53457Z" fill="#222A36"/>
</svg>
