<svg width="52" height="64" viewBox="0 0 52 64" fill="none" xmlns="http://www.w3.org/2000/svg">
<path fill-rule="evenodd" clip-rule="evenodd" d="M7.70214 7.4202C12.5123 2.95464 19.0326 0.714844 26 0.714844C32.9674 0.714844 39.4877 2.95464 44.2979 7.4202C49.144 11.9191 52 18.4441 52 26.4796C52 32.7217 48.5462 39.5533 44.7104 45.3419C40.7821 51.2702 36.035 56.7112 32.6791 60.2984C29.0372 64.1914 22.9628 64.1914 19.3209 60.2984C15.965 56.7112 11.2179 51.2702 7.28962 45.3419C3.45381 39.5532 0 32.7217 0 26.4796C0 18.4441 2.85603 11.9191 7.70214 7.4202ZM19.5 23.4648C19.5 19.875 22.4101 16.9648 26 16.9648C29.5899 16.9648 32.5 19.875 32.5 23.4648C32.5 27.0547 29.5899 29.9648 26 29.9648C22.4101 29.9648 19.5 27.0547 19.5 23.4648ZM26 10.4648C18.8203 10.4648 13 16.2851 13 23.4648C13 30.6445 18.8203 36.4648 26 36.4648C33.1797 36.4648 39 30.6445 39 23.4648C39 16.2851 33.1797 10.4648 26 10.4648Z" fill="#222A36"/>
</svg>
