<svg width="78" height="67" viewBox="0 0 78 67" fill="none" xmlns="http://www.w3.org/2000/svg">
<path fill-rule="evenodd" clip-rule="evenodd" d="M24.5459 0.44713C23.5598 -0.138361 22.3354 -0.149577 21.3387 0.417754C20.3421 0.985084 19.7266 2.04367 19.7266 3.19048V63.8095C19.7266 64.9563 20.3421 66.0149 21.3387 66.5822C22.3354 67.1496 23.5598 67.1384 24.5459 66.5529L75.5935 36.2433C76.5617 35.6685 77.1551 34.6259 77.1551 33.5C77.1551 32.3741 76.5617 31.3315 75.5935 30.7567L24.5459 0.44713Z" fill="#222A36"/>
<path fill-rule="evenodd" clip-rule="evenodd" d="M0.0546875 43.2874C0.0546875 45.8761 2.12518 47.9746 4.67927 47.9746H32.4267C32.947 47.9746 33.4321 47.7087 33.7168 47.2674C34.0016 46.8261 34.0475 46.269 33.839 45.786L28.714 33.9129L33.839 22.0398C34.0475 21.5567 34.0016 20.9997 33.7168 20.5584C33.4321 20.1171 32.947 19.8512 32.4267 19.8512H4.67927C2.12518 19.8512 0.0546875 21.9497 0.0546875 24.5384V43.2874Z" fill="#222A36"/>
</svg>
