<svg width="835" height="102" viewBox="0 0 835 102" fill="none" xmlns="http://www.w3.org/2000/svg">
<path d="M32.614 14.8782L17.4805 86.2569H32.8245L44.141 54.2039L52.7409 68.3555C54.5537 73.1492 64.9422 86.2272 69.6306 86.2272C74.311 86.2272 70.2214 73.2544 74.0574 68.3555L96.2075 40.9776L86.5123 86.2569H102.077L117.198 14.8782H101.328L66.701 58.8708C66.059 59.7259 64.9961 59.7259 64.6778 58.8708L48.5893 14.8782H32.614Z" fill="#1A1A1A"/>
<path d="M192.405 35.5204L195.937 17.2171C190.93 15.0887 182.195 13.918 172.605 13.918C143.627 13.918 127.747 24.8864 122.216 50.4625C116.883 75.8146 127.536 87.2174 156.622 87.2174C166.746 87.2174 175.052 85.7202 181.658 84.1286L186.927 67.4493C180.425 68.9465 169.098 68.0401 159.824 68.0401C142.036 68.0401 134.682 67.0797 138.402 50.2412C142.025 33.7292 152.047 38.0804 170.266 38.0804C179.001 38.0804 187.401 33.392 192.405 35.5204Z" fill="#1A1A1A"/>
<path d="M170.033 14.8782L139.529 52.5368L153.206 86.2569H211.951L237.201 61.4308L252.006 86.2569H271.183L249.34 49.502L284.609 14.8782H265.429L243.586 34.7623L228.782 14.8782H170.033Z" fill="#1A1A1A"/>
<path d="M334.284 14.8782H294.759L279.636 86.2569H295.19L300.089 62.812H324.168C341.851 62.812 351.975 54.4035 355.274 38.4175C358.584 22.5475 351.648 14.8782 334.284 14.8782ZM280.216 50.8103L307.656 27.3439H329.922C337.909 27.3439 340.143 31.6007 338.762 38.4175C337.16 46.7315 331.84 50.3571 325.02 50.3571L280.216 50.8103Z" fill="#1A1A1A"/>
<path d="M369.878 14.8782L358.267 69.958C356.349 78.4824 361.564 86.2569 372.543 86.2569H413.663L416.328 73.7912H379.573C375.632 73.7912 373.398 71.2312 374.251 67.1848L376.484 56.7424H418.456L421.121 44.3819H379.152L382.767 27.3439H426.665L429.225 14.8782H369.878Z" fill="#1A1A1A"/>
<path d="M478.258 14.8782H439.795L424.664 86.2569H440.216L445.339 61.9703H459.723L471.862 86.2569H491.25L478.363 60.894C489.766 58.2395 496.793 50.3571 499.353 37.3547C502.652 21.053 495.296 14.8782 478.258 14.8782ZM447.993 49.502L452.684 27.3439H474.211C482.199 27.3439 484.538 31.1798 483.157 37.8915C481.557 45.8791 476.34 49.502 469.418 49.502H447.993Z" fill="#1A1A1A"/>
<path d="M514.708 14.8782L499.575 86.2569H515.129L530.26 14.8782H514.708Z" fill="#1A1A1A"/>
<path d="M542.59 14.8782L530.977 69.958C529.059 78.4824 534.276 86.2569 545.255 86.2569H586.372L589.037 73.7912H552.282C548.341 73.7912 546.107 71.2312 546.952 67.1848L549.196 56.7424H591.166L593.833 44.3819H551.851L555.476 27.3439H599.374L601.926 14.8782H542.59Z" fill="#1A1A1A"/>
<path d="M611.967 14.8782L596.846 86.2569H611.861L623.717 47.0903L650.219 86.2569H665.234L680.367 14.8782H665.349L655.552 59.8932L626.995 14.8782H611.967Z" fill="#1A1A1A"/>
<path d="M752.707 30.7456L755.586 17.2171C750.579 15.0887 741.844 13.918 732.254 13.918C703.276 13.918 687.406 24.8864 681.865 50.4625C676.543 75.8146 687.196 87.2174 716.279 87.2174C726.395 87.2174 734.709 85.7202 741.318 84.1286L740.285 65.4989C733.784 66.9853 729.4 66.7317 720.126 66.7317C702.338 66.7317 694.331 67.0797 698.059 50.2412C701.685 33.7292 710.401 46.9744 728.62 46.9744C737.355 46.9744 747.703 28.6172 752.707 30.7456Z" fill="#1A1A1A"/>
<path d="M765.647 14.8782L754.034 69.9579C752.118 78.4824 757.039 86.2569 768.007 86.2569L804.835 86.532L806.945 73.6348L775.342 73.7912C771.401 73.8128 769.167 71.2312 770.02 67.1848L772.253 56.7424H810.031L812.253 44.8243L774.921 44.3819L778.544 27.3439H815.415L817.967 14.8782H765.647Z" fill="#1A1A1A"/>
<path fill-rule="evenodd" clip-rule="evenodd" d="M132.159 9.95407C143.375 2.67951 157.153 0 172.3 0C177.289 0 182.505 0.282315 187.429 0.960233H235.465L245.271 14.1306L259.738 0.960233H333.979C341.789 0.960233 350.209 2.2335 357.076 6.6934L358.284 0.960233H477.952C485.705 0.960233 494.669 2.00012 501.887 6.81511L503.128 0.960233H634.341L648.853 23.8353L653.832 0.960233H697.237L695.83 7.59796C706.252 2.09211 718.565 0 731.949 0C739.29 0 747.124 0.611312 753.794 2.19491L754.054 0.960233H834.715L828.544 31.1021L828.662 31.1035L821.285 70.6555H821.227L816.34 100.534L767.702 100.17C767.682 100.17 767.663 100.17 767.644 100.17C761.883 100.161 756.33 98.7729 751.642 95.8797L744.271 97.6549C736.956 99.4163 727.505 101.13 715.974 101.13C701.768 101.13 687.985 98.7209 678.288 90.3359L676.203 100.17H642.527L628.264 79.09L621.883 100.17H544.95C538.48 100.17 532.272 98.4393 527.23 94.8339L526.098 100.17H462.955L454.687 83.6279L451.197 100.17H372.238C363.376 100.17 355.006 96.923 349.448 90.0579C345.41 85.0703 343.623 79.1063 343.661 73.1956C337.569 75.6615 330.856 76.7251 323.863 76.7251H311.092L306.193 100.17H243.797L234.018 83.7727L217.341 100.17H171.176C166.687 100.753 161.733 101.13 156.316 101.13C140.797 101.13 125.779 98.2549 116.045 87.8518C115.939 87.7385 115.834 87.6247 115.73 87.5106L113.049 100.17H68.9965L69.0035 100.137C65.5422 100.07 62.7646 98.9272 61.1207 98.1079C59.2748 97.1879 57.6695 96.0691 56.3846 95.063C53.8111 93.048 51.3882 90.5858 49.3627 88.2876C48.6889 87.5232 48.0268 86.7401 47.3842 85.9497L42.3636 100.17H0L21.0343 0.960233H58.0119L69.513 32.4089L94.2662 0.960233H134.064L132.159 9.95407ZM199.669 72.3389H205.951L231.495 47.2233L231.493 47.2202L233.64 45.1126L221.488 28.7913H207.57L203.623 49.2518L207.224 48.4226L199.669 72.3389ZM194.03 51.4609L188.213 48.9867C187.657 49.0832 186.851 49.2525 185.643 49.5392C185.297 49.6214 184.911 49.7163 184.488 49.82C181.17 50.6351 175.64 51.9935 169.961 51.9935C166.159 51.9935 162.53 51.8152 159.627 51.6726C159.017 51.6426 158.438 51.6141 157.897 51.5893L155.863 54.1002C156.966 54.1158 158.179 54.1221 159.518 54.1221C161.859 54.1221 165.211 54.2004 168.299 54.2726C170.594 54.3262 172.743 54.3765 174.224 54.3886C179.069 54.4284 182.025 54.2255 183.498 53.8863L194.03 51.4609ZM189.077 48.8775C189.077 48.8783 189.053 48.8799 189.008 48.88C189.056 48.8767 189.078 48.8767 189.077 48.8775ZM732.303 27.8317C732.185 27.8313 732.067 27.8311 731.949 27.8311C724.7 27.8311 719.025 28.6095 714.554 29.9264C715.846 30.3231 716.97 30.7047 718.006 31.0567C720.984 32.0677 723.243 32.8345 726.695 33.0156C726.72 32.9971 726.746 32.9779 726.773 32.9581C728.095 31.9777 729.679 30.4683 731.896 28.2412C732.027 28.1102 732.163 27.9734 732.303 27.8317ZM725.917 33.5154C725.918 33.5128 725.955 33.4913 726.029 33.4589C725.953 33.5019 725.916 33.5181 725.917 33.5154ZM711.844 51.4834C711.846 51.487 711.825 51.5427 711.778 51.6395C711.819 51.5283 711.843 51.4798 711.844 51.4834ZM703.612 55.7938C703.608 55.789 703.682 55.797 703.847 55.8322C703.699 55.8163 703.617 55.7987 703.612 55.7938Z" fill="#1A1A1A"/>
<path d="M27.9148 7.06641L12.7812 78.4478H28.1252L37.7125 33.1684L48.0497 60.5438C49.8625 65.3401 52.6357 67.2581 57.3133 67.2581C62.0018 67.2581 65.5221 65.4453 69.3581 60.5438L91.519 33.1684L81.8238 78.4478H97.3782L112.509 7.06641H96.6283L62.0018 51.0725C61.3706 51.9141 60.2942 51.9141 59.9786 51.0725L43.8981 7.06641H27.9148Z" fill="#ECECEC"/>
<path d="M191.427 22.9351L194.302 9.4039C189.298 7.27549 180.564 6.10742 170.974 6.10742C141.996 6.10742 126.126 17.0759 120.582 42.6492C115.26 68.004 125.915 79.4041 154.998 79.4041C165.114 79.4041 173.428 77.9096 180.035 76.318L182.913 62.8921C176.409 64.3784 167.032 66.2964 157.769 66.2964C139.973 66.2964 133.048 59.2692 136.779 42.4388C140.404 25.9268 149.983 19.2151 168.2 19.2151C176.938 19.2151 186.42 20.8067 191.427 22.9351Z" fill="#ECECEC"/>
<path d="M206.031 7.06641L226.695 41.6929L189.309 78.4478H208.475L233.733 53.6217L248.54 78.4478H267.717L245.872 41.6929L281.143 7.06641H261.963L238.845 29.7533L225.314 7.06641H206.031Z" fill="#FFF717"/>
<path d="M330.82 7.06641H291.292L276.172 78.4478H291.726L296.625 55.011H320.704C338.384 55.011 348.5 46.5918 351.81 30.6084C355.109 14.7384 348.184 7.06641 330.82 7.06641ZM299.28 42.5453L304.192 19.5321H326.458C334.443 19.5321 336.679 23.7889 335.298 30.6084C333.696 38.9225 328.373 42.5453 321.556 42.5453H299.28Z" fill="#ECECEC"/>
<path d="M366.411 7.06641L354.798 62.1462C352.88 70.6706 358.097 78.4478 369.077 78.4478H410.196L412.862 65.9821H376.107C372.165 65.9821 369.921 63.4221 370.774 59.3757L373.018 48.9333H414.99L417.655 36.5809H375.675L379.298 19.5321H423.199L425.748 7.06641H366.411Z" fill="#ECECEC"/>
<path d="M474.793 7.06641H436.33L421.199 78.4478H436.751L441.863 54.1585H456.247L468.397 78.4478H487.784L474.898 53.0957C486.29 50.4278 493.328 42.5453 495.877 29.5429C499.187 13.2412 491.831 7.06641 474.793 7.06641ZM444.528 41.6929L449.217 19.5321H470.735C478.734 19.5321 481.073 23.3681 479.691 30.0797C478.089 38.0673 472.875 41.6929 465.942 41.6929H444.528Z" fill="#ECECEC"/>
<path d="M511.241 7.06641L496.107 78.4478H511.662L526.793 7.06641H511.241Z" fill="#ECECEC"/>
<path d="M539.124 7.06641L527.513 62.1462C525.595 70.6706 530.81 78.4478 541.781 78.4478H582.909L585.574 65.9821H548.819C544.878 65.9821 542.633 63.4221 543.489 59.3757L545.722 48.9333H587.702L590.37 36.5809H548.387L552.013 19.5321H595.9L598.463 7.06641H539.124Z" fill="#ECECEC"/>
<path d="M608.502 7.06641L593.371 78.4478H608.397L618.513 30.6084L646.754 78.4478H661.769L676.902 7.06641H661.874L651.653 54.9058L623.53 7.06641H608.502Z" fill="#ECECEC"/>
<path d="M749.243 22.9351L752.121 9.4039C747.114 7.27549 738.38 6.10742 728.79 6.10742C699.812 6.10742 683.942 17.0759 678.398 42.6492C673.068 68.004 683.721 79.4041 712.804 79.4041C722.93 79.4041 731.244 77.9096 737.843 76.318L740.718 62.8921C734.228 64.3784 724.848 66.2964 715.577 66.2964C697.789 66.2964 690.864 59.2692 694.595 42.4388C698.21 25.9268 707.8 19.2151 726.019 19.2151C734.754 19.2151 744.239 20.8067 749.243 22.9351Z" fill="#ECECEC"/>
<path d="M762.179 7.06641L750.565 62.1462C748.647 70.6706 753.875 78.4478 764.844 78.4478H805.972L808.629 65.9821H771.874C767.933 65.9821 765.699 63.4221 766.551 59.3757L768.785 48.9333H810.757L813.422 36.5809H771.45L775.076 19.5321H818.966L821.526 7.06641H762.179Z" fill="#ECECEC"/>
</svg>
